<?xml version="1.0" ?><!DOCTYPE svg  PUBLIC '-//W3C//DTD SVG 1.1//EN'  'http://www.w3.org/Graphics/SVG/1.1/DTD/svg11.dtd'><svg enable-background="new 0 0 128 128" id="Layer_1" version="1.1" viewBox="0 0 128 128" xml:space="preserve" xmlns="http://www.w3.org/2000/svg" xmlns:xlink="http://www.w3.org/1999/xlink"><path d="M60.9,14.3c-8.3,0.2-14.8,7.3-14.8,15.6v31.3c0,3.6,1.7,6.8,4.4,8.8c2.5,1.8,4,4.6,4,7.7v31  c0,3.5,2.5,6.6,6,6.9c4,0.4,7.3-2.7,7.3-6.6V77.7c0-3.1,1.6-5.9,4-7.7c2.7-2,4.4-5.2,4.4-8.8V29.4C76.3,21,69.4,14.2,60.9,14.3z" fill="#DD3B86"/><path d="M60.9,14.3c-8.3,0.2-14.8,7.3-14.8,15.6v31.3  c0,3.6,1.7,6.8,4.4,8.8c2.5,1.8,4,4.6,4,7.7v31c0,3.5,2.5,6.6,6,6.9c4,0.4,7.3-2.7,7.3-6.6V77.7c0-3.1,1.6-5.9,4-7.7  c2.7-2,4.4-5.2,4.4-8.8V29.4C76.3,21,69.4,14.2,60.9,14.3z" fill="none" stroke="#3D3D3D" stroke-miterlimit="10" stroke-width="2"/><path d="M64.5,14.3c-8.3,0.2-14.8,7.3-14.8,15.6v31.3c0,3.6,1.7,6.8,4.4,8.8c2.5,1.8,4,4.6,4,7.7v31  c0,3.5,2.5,6.6,6,6.9c4,0.4,7.3-2.7,7.3-6.6V77.7c0-3.1,1.6-5.9,4-7.7c2.7-2,4.4-5.2,4.4-8.8V29.4C79.9,21,73,14.2,64.5,14.3z" fill="#E875AE"/><path d="M64.5,14.3c-8.3,0.2-14.8,7.3-14.8,15.6v31.3  c0,3.6,1.7,6.8,4.4,8.8c2.5,1.8,4,4.6,4,7.7v31c0,3.5,2.5,6.6,6,6.9c4,0.4,7.3-2.7,7.3-6.6V77.7c0-3.1,1.6-5.9,4-7.7  c2.7-2,4.4-5.2,4.4-8.8V29.4C79.9,21,73,14.2,64.5,14.3z" fill="none" stroke="#3D3D3D" stroke-miterlimit="10" stroke-width="2"/><path d="M64.8,67.4L64.8,67.4c-5,0-9-4.1-9-9V30.6c0-5,4.1-9,9-9h0c5,0,9,4.1,9,9v27.8  C73.9,63.4,69.8,67.4,64.8,67.4z" fill="#FFFFFF"/><path d="M64.8,67.4L64.8,67.4c-5,0-9-4.1-9-9V30.6  c0-5,4.1-9,9-9h0c5,0,9,4.1,9,9v27.8C73.9,63.4,69.8,67.4,64.8,67.4z" fill="none" stroke="#3D3D3D" stroke-miterlimit="10" stroke-width="2"/><line fill="none" stroke="#3D3D3D" stroke-miterlimit="10" stroke-width="2" x1="64" x2="64" y1="25" y2="17"/><line fill="none" stroke="#3D3D3D" stroke-miterlimit="10" stroke-width="2" x1="67.8" x2="71.6" y1="26" y2="19.4"/><line fill="none" stroke="#3D3D3D" stroke-miterlimit="10" stroke-width="2" x1="70.2" x2="76.3" y1="29.2" y2="26"/><line fill="none" stroke="#3D3D3D" stroke-miterlimit="10" stroke-width="2" x1="64" x2="64" y1="64" y2="72"/><line fill="none" stroke="#3D3D3D" stroke-miterlimit="10" stroke-width="2" x1="67.8" x2="71.6" y1="63.4" y2="70"/><line fill="none" stroke="#3D3D3D" stroke-miterlimit="10" stroke-width="2" x1="70.2" x2="76.3" y1="60.2" y2="63.4"/><line fill="none" stroke="#3D3D3D" stroke-miterlimit="10" stroke-width="2" x1="70" x2="77" y1="34" y2="34"/><line fill="none" stroke="#3D3D3D" stroke-miterlimit="10" stroke-width="2" x1="70" x2="77" y1="38" y2="38"/><line fill="none" stroke="#3D3D3D" stroke-miterlimit="10" stroke-width="2" x1="70" x2="77" y1="43" y2="43"/><line fill="none" stroke="#3D3D3D" stroke-miterlimit="10" stroke-width="2" x1="70" x2="77" y1="48" y2="48"/><line fill="none" stroke="#3D3D3D" stroke-miterlimit="10" stroke-width="2" x1="70" x2="77" y1="53" y2="53"/><line fill="none" stroke="#3D3D3D" stroke-miterlimit="10" stroke-width="2" x1="70" x2="77" y1="57" y2="57"/><line fill="none" stroke="#3D3D3D" stroke-miterlimit="10" stroke-width="2" x1="61.8" x2="58" y1="26" y2="19.4"/><line fill="none" stroke="#3D3D3D" stroke-miterlimit="10" stroke-width="2" x1="59.4" x2="53.3" y1="29.2" y2="26"/><line fill="none" stroke="#3D3D3D" stroke-miterlimit="10" stroke-width="2" x1="61.8" x2="58" y1="63.4" y2="70"/><line fill="none" stroke="#3D3D3D" stroke-miterlimit="10" stroke-width="2" x1="59.4" x2="53.3" y1="60.2" y2="63.4"/><line fill="none" stroke="#3D3D3D" stroke-miterlimit="10" stroke-width="2" x1="59" x2="52" y1="34" y2="34"/><line fill="none" stroke="#3D3D3D" stroke-miterlimit="10" stroke-width="2" x1="59" x2="52" y1="38" y2="38"/><line fill="none" stroke="#3D3D3D" stroke-miterlimit="10" stroke-width="2" x1="59" x2="52" y1="43" y2="43"/><line fill="none" stroke="#3D3D3D" stroke-miterlimit="10" stroke-width="2" x1="59" x2="52" y1="48" y2="48"/><line fill="none" stroke="#3D3D3D" stroke-miterlimit="10" stroke-width="2" x1="59" x2="52" y1="53" y2="53"/><line fill="none" stroke="#3D3D3D" stroke-miterlimit="10" stroke-width="2" x1="59" x2="52" y1="57" y2="57"/><rect fill="#3D3D3D" height="2" width="2" x="62" y="28"/><rect fill="#3D3D3D" height="2" width="2" x="65" y="27"/><rect fill="#3D3D3D" height="2" width="2" x="67" y="31"/><rect fill="#3D3D3D" height="2" width="2" x="64" y="32"/><rect fill="#3D3D3D" height="2" width="2" x="61" y="33"/><rect fill="#3D3D3D" height="2" width="2" x="62" y="37"/><rect fill="#3D3D3D" height="2" width="2" x="65" y="36"/><rect fill="#3D3D3D" height="2" width="2" x="68" y="39"/><rect fill="#3D3D3D" height="2" width="2" x="65" y="40"/><rect fill="#3D3D3D" height="1.8" width="2" x="61" y="41"/><rect fill="#3D3D3D" height="2" width="2" x="62" y="45"/><rect fill="#3D3D3D" height="2" width="2" x="66" y="44"/><rect fill="#3D3D3D" height="2" width="2" x="67" y="47"/><rect fill="#3D3D3D" height="2" width="2" x="64" y="49"/><rect fill="#3D3D3D" height="2" width="2" x="61" y="50"/><rect fill="#3D3D3D" height="2" width="2" x="62" y="54"/><rect fill="#3D3D3D" height="2" width="2" x="66" y="52"/><rect fill="#3D3D3D" height="2" width="2" x="65" y="61"/><rect fill="#3D3D3D" height="2" width="2" x="67" y="56"/><rect fill="#3D3D3D" height="2" width="2" x="64" y="57"/><rect fill="#3D3D3D" height="2" width="2" x="61" y="59"/><line fill="none" stroke="#3D3D3D" stroke-linejoin="round" stroke-miterlimit="10" stroke-width="2" x1="65" x2="65" y1="76" y2="110"/></svg>