<?xml version="1.0" ?><!DOCTYPE svg  PUBLIC '-//W3C//DTD SVG 1.1//EN'  'http://www.w3.org/Graphics/SVG/1.1/DTD/svg11.dtd'><svg enable-background="new 0 0 128 128" id="Layer_1" version="1.1" viewBox="0 0 128 128" xml:space="preserve" xmlns="http://www.w3.org/2000/svg" xmlns:xlink="http://www.w3.org/1999/xlink"><path d="M72.8,111H51.2l-2.1-36.7c-0.1-1.2,0.9-2.3,2.2-2.3h21.4c1.2,0,2.2,1.1,2.2,2.3L72.8,111z" fill="#E875AE"/><path d="M72.8,111H51.2l-2.1-36.7c-0.1-1.2,0.9-2.3,2.2-2.3  h21.4c1.2,0,2.2,1.1,2.2,2.3L72.8,111z" fill="none" stroke="#3D3D3D" stroke-miterlimit="10" stroke-width="2"/><rect fill="#FFFFFF" height="24" width="18" x="53" y="48"/><rect fill="none" height="24" stroke="#3D3D3D" stroke-miterlimit="10" stroke-width="2" width="18" x="53" y="48"/><path d="M56,48h12V19.9c0-2.5-1.8-4.9-4.2-4.9h0.4c-4.7,0-8.1,4.3-8.1,9V48z" fill="#DD3B86"/><path d="M56,48h12V19.9c0-2.5-1.8-4.9-4.2-4.9h0.4  c-4.7,0-8.1,4.3-8.1,9V48z" fill="none" stroke="#3D3D3D" stroke-miterlimit="10" stroke-width="2"/></svg>