<?xml version="1.0" ?><svg height="24px" version="1.1" viewBox="0 0 24 24" width="24px" xmlns="http://www.w3.org/2000/svg" xmlns:sketch="http://www.bohemiancoding.com/sketch/ns" xmlns:xlink="http://www.w3.org/1999/xlink"><title/><desc/><defs/><g fill="none" fill-rule="evenodd" id="miu" stroke="none" stroke-width="1"><g id="Artboard-1" transform="translate(-683.000000, -335.000000)"><g id="slice" transform="translate(215.000000, 119.000000)"/><path d="M684.008898,347.5 C684.136421,355 685,355 685,355 L686,355 L686,340 L685,340 C685,340 683.881376,340 684.008898,347.5 Z M706,347.5 C706,355 704.749474,355 704.749474,355 L694,355 L694,340 L704.749474,340 C704.749474,340 706,340 706,347.5 Z M702,353 C702.552285,353 703,352.552285 703,352 C703,351.447715 702.552285,351 702,351 C701.447715,351 701,351.447715 701,352 C701,352.552285 701.447715,353 702,353 Z M699,353 C699.552285,353 700,352.552285 700,352 C700,351.447715 699.552285,351 699,351 C698.447715,351 698,351.447715 698,352 C698,352.552285 698.447715,353 699,353 Z M696,353 C696.552285,353 697,352.552285 697,352 C697,351.447715 696.552285,351 696,351 C695.447715,351 695,351.447715 695,352 C695,352.552285 695.447715,353 696,353 Z M702,350 C702.552285,350 703,349.552285 703,349 C703,348.447715 702.552285,348 702,348 C701.447715,348 701,348.447715 701,349 C701,349.552285 701.447715,350 702,350 Z M699,350 C699.552285,350 700,349.552285 700,349 C700,348.447715 699.552285,348 699,348 C698.447715,348 698,348.447715 698,349 C698,349.552285 698.447715,350 699,350 Z M696,350 C696.552285,350 697,349.552285 697,349 C697,348.447715 696.552285,348 696,348 C695.447715,348 695,348.447715 695,349 C695,349.552285 695.447715,350 696,350 Z M703,346 C703,345.447715 702.552285,345 702,345 C701.447715,345 701,345.447715 701,346 C701,346.552285 701.447715,347 702,347 C702.552285,347 703,346.552285 703,346 Z M699,347 C699.552285,347 700,346.552285 700,346 C700,345.447715 699.552285,345 699,345 C698.447715,345 698,345.447715 698,346 C698,346.552285 698.447715,347 699,347 Z M696,347 C696.552285,347 697,346.552285 697,346 C697,345.447715 696.552285,345 696,345 C695.447715,345 695,345.447715 695,346 C695,346.552285 695.447715,347 696,347 Z M695.167091,342 C695.074809,342 695,342.068845 695,342.153616 L695,343.846384 C695,343.931224 695.074088,344 695.167091,344 L702.832909,344 C702.925191,344 703,343.931155 703,343.846384 L703,342.153616 C703,342.068776 702.925911,342 702.832909,342 L695.167091,342 Z M688.647059,339 C688.647059,339 687,339 687,340.375474 L687,354.624526 C687,356 688.647059,356 688.647059,356 L691.352941,356 C691.352941,356 693,356 693,354.624526 L693,340.375474 C693,339 691.352941,339 691.352941,339 L688.647059,339 Z" fill="#000000" id="business-telephone-office-glyph"/></g></g></svg>