<?xml version="1.0" ?><!DOCTYPE svg  PUBLIC '-//W3C//DTD SVG 1.1//EN'  'http://www.w3.org/Graphics/SVG/1.1/DTD/svg11.dtd'><svg enable-background="new 0 0 128 128" id="Layer_1" version="1.1" viewBox="0 0 128 128" xml:space="preserve" xmlns="http://www.w3.org/2000/svg" xmlns:xlink="http://www.w3.org/1999/xlink"><path d="M112.1,95c-0.4-1-60.4-54.2-66.8-58.8s-16.1-3.6-25.5,3s-6.7,8.5-5.9,10.4c0.8,1.9,3.3,1.6,8.9-2.1  c5.6-3.7,12.7-9.8,16.7-9S107.8,99,107.8,99" fill="#DD3B86"/><path d="M33.4,16.3c1,0.4,54.2,60.4,58.8,66.8c4.6,6.4,3.6,16.1-3,25.5s-8.5,6.7-10.4,5.9c-1.9-0.8-1.6-3.3,2.1-8.9  c3.7-5.6,9.8-12.7,9-16.7C89,84.8,29.4,20.7,29.4,20.7" fill="#DD3B86"/><path d="M24.7,47.4c0.7,1,1.6,2.1,2.6,3.2c8,8.3,24,10.2,32.8,4c7.1-5,6.8-14.1-0.2-26.5c-0.5-1-1.1-1.9-1.7-2.7  c-3.2-4.6-5.6-5.2-9.7-5.7c-4.5-0.5-9.5,1.4-14.1,5.5C21.5,36.6,20.4,41.2,24.7,47.4z" fill="#C1C1C0"/><path d="M81,103.6c-1-0.7-2.1-1.6-3.2-2.6c-8.3-8-10.2-24-4-32.8c5-7.1,14.1-6.8,26.5,0.2c1,0.5,1.9,1.1,2.7,1.7  c4.6,3.2,5.2,5.6,5.7,9.7c0.5,4.5-1.4,9.5-5.5,14.1C91.7,106.8,87.2,108,81,103.6z" fill="#C1C1C0"/><path d="M112.1,95c-0.4-1-60.4-54.2-66.8-58.8  s-16.1-3.6-25.5,3s-6.7,8.5-5.9,10.4c0.8,1.9,3.3,1.6,8.9-2.1c5.6-3.7,12.7-9.8,16.7-9S107.8,99,107.8,99" fill="none" stroke="#3D3D3D" stroke-miterlimit="10" stroke-width="2"/><g><path d="M65.7,52.2C50.3,34.8,33.9,16.6,33.4,16.3l-4,4.3c0,0,16.6,17.9,32.5,35.4L65.7,52.2z" fill="#C1C1C0"/><path d="M92.2,83.1c-1.6-2.2-8.8-10.7-17.8-20.9l-3.7,3.7c10.4,11.7,18.8,21.4,19.1,22.9c0.9,4.1-5.3,11.1-9,16.7   c-1.4,2.2,7.4,4.1,8.3,3C96.1,99.5,96.8,89.5,92.2,83.1z" fill="#C1C1C0"/></g><path d="M33.4,16.3c1,0.4,54.2,60.4,58.8,66.8  c4.6,6.4,3.6,16.1-3,25.5s-8.5,6.7-10.4,5.9c-1.9-0.8-1.6-3.3,2.1-8.9c3.7-5.6,9.8-12.7,9-16.7C89,84.8,29.4,20.7,29.4,20.7" fill="none" stroke="#3D3D3D" stroke-miterlimit="10" stroke-width="2"/><polygon fill="#E875AE" points="74.8,63.6 64.5,53.3 66.3,46.5 81.6,61.9 "/><rect fill="none" height="6" stroke="#3D3D3D" stroke-linejoin="round" stroke-miterlimit="10" stroke-width="2" transform="matrix(0.7071 0.7071 -0.7071 0.7071 61.2979 -34.4559)" width="15.7" x="64.4" y="53.7"/><path d="M108.8,98.4c10-11.4,9.8-25.3-6.1-34.3c-11.9-6.7-25.1-9.9-32.9,1.2c-7.8,11.1-5.2,29.7,4.6,39.1  C87.1,116.5,97.9,110.8,108.8,98.4z M81,103.6c-1-0.7-2.1-1.6-3.2-2.6c-8.3-8-10.2-24-4-32.8c5-7.1,14.1-6.8,26.5,0.2  c1,0.5,1.9,1.1,2.7,1.7c4.6,3.2,5.2,5.6,5.7,9.7c0.5,4.5-1.4,9.5-5.5,14.1C91.7,106.8,87.2,108,81,103.6z" fill="#E875AE"/><path d="M108.7,79.7c0.5,4.5-1.4,9.5-5.5,14.1c-0.6,0.6-1.1,1.2-1.6,1.8l8.4,1.4c6.4-8,7.8-17.1,2.3-24.8l-7.9-1.3  C107.7,73.7,108.3,76,108.7,79.7z" fill="#FFFFFF"/><path d="M69.8,65.4  c7.8-11.1,21-7.9,32.9-1.2c15.9,9,16.1,22.9,6.1,34.3c-10.9,12.4-21.7,18.1-34.3,6.1C64.6,95.1,62,76.5,69.8,65.4z" fill="none" stroke="#3D3D3D" stroke-linejoin="round" stroke-miterlimit="10" stroke-width="2"/><path d="M81,103.6  c-1-0.7-2.1-1.6-3.2-2.6c-8.3-8-10.2-24-4-32.8c5-7.1,14.1-6.8,26.5,0.2c1,0.5,1.9,1.1,2.7,1.7c4.6,3.2,5.2,5.6,5.7,9.7  c0.5,4.5-1.4,9.5-5.5,14.1C91.7,106.8,87.2,108,81,103.6z" fill="none" stroke="#3D3D3D" stroke-linejoin="round" stroke-miterlimit="10" stroke-width="2"/><path d="M64.2,25.6c-9-15.9-22.9-16.1-34.3-6.1c-12.4,10.9-18.1,21.7-6.1,34.3c9.4,9.9,28,12.4,39.1,4.6  C74.1,50.7,70.9,37.5,64.2,25.6z M60.2,54.6c-8.8,6.2-24.9,4.4-32.8-4c-1-1.1-1.9-2.1-2.6-3.2c-4.4-6.2-3.2-10.7,9.8-22.2  c4.7-4.1,9.7-6.1,14.1-5.5c4.1,0.5,6.5,1.1,9.7,5.7c0.6,0.8,1.1,1.7,1.7,2.7C67,40.4,67.3,49.6,60.2,54.6z" fill="#E875AE"/><path d="M34.5,25.2c4.7-4.1,9.7-6.1,14.1-5.5c3.8,0.5,6.1,1,8.8,4.5l-1.3-8c-7.7-5.4-16.8-4-24.8,2.3l1.4,8.2  C33.3,26.3,33.9,25.7,34.5,25.2z" fill="#FFFFFF"/><path d="M63,58.5  c11.1-7.8,7.9-21,1.2-32.9c-9-15.9-22.9-16.1-34.3-6.1c-12.4,10.9-18.1,21.7-6.1,34.3C33.3,63.8,51.8,66.3,63,58.5z" fill="none" stroke="#3D3D3D" stroke-linejoin="round" stroke-miterlimit="10" stroke-width="2"/><path d="M24.7,47.4  c0.7,1,1.6,2.1,2.6,3.2c8,8.3,24,10.2,32.8,4c7.1-5,6.8-14.1-0.2-26.5c-0.5-1-1.1-1.9-1.7-2.7c-3.2-4.6-5.6-5.2-9.7-5.7  c-4.5-0.5-9.5,1.4-14.1,5.5C21.5,36.6,20.4,41.2,24.7,47.4z" fill="none" stroke="#3D3D3D" stroke-linejoin="round" stroke-miterlimit="10" stroke-width="2"/></svg>